<?xml version="1.0" standalone="no"?>
<!DOCTYPE svg PUBLIC "-//W3C//DTD SVG 20010904//EN"
 "http://www.w3.org/TR/2001/REC-SVG-20010904/DTD/svg10.dtd">
<svg version="1.0" xmlns="http://www.w3.org/2000/svg"
 width="784.000000pt" height="784.000000pt" viewBox="0 0 784.000000 784.000000"
 preserveAspectRatio="xMidYMid meet">

<g transform="translate(0.000000,784.000000) scale(0.100000,-0.100000)"
fill="#000000" stroke="none">
<path d="M3555 7829 c-377 -27 -814 -131 -1176 -280 -837 -343 -1543 -993
-1953 -1799 -293 -576 -426 -1145 -426 -1830 0 -687 134 -1260 429 -1835 611
-1193 1797 -1975 3146 -2075 301 -22 687 -10 970 31 696 99 1360 394 1910 848
121 100 337 312 447 440 541 624 866 1412 928 2246 13 179 13 511 0 690 -60
810 -363 1564 -879 2190 -100 121 -312 337 -440 447 -624 541 -1412 866 -2246
928 -159 11 -545 11 -710 -1z m-252 -444 c66 -17 97 -34 150 -84 56 -52 86
-118 108 -240 12 -58 33 -138 49 -177 75 -187 268 -417 466 -554 44 -30 245
-139 447 -242 591 -301 805 -438 1035 -662 435 -422 594 -966 446 -1522 -39
-146 -39 -144 -20 -144 30 0 113 -48 168 -99 93 -85 138 -193 138 -333 0 -134
-48 -249 -141 -332 -60 -54 -60 -45 5 -192 91 -204 126 -479 91 -719 -21 -148
-58 -265 -130 -410 -193 -390 -525 -655 -940 -751 -119 -27 -125 -28 -535 -32
l-415 -4 -61 -57 c-144 -133 -332 -201 -558 -201 -230 0 -409 65 -563 203
l-63 57 -113 0 c-238 0 -419 58 -643 206 -113 75 -297 258 -387 384 -85 120
-195 342 -241 485 -83 258 -109 439 -109 760 1 396 67 941 169 1399 l35 159
-38 75 c-37 72 -38 79 -38 177 0 97 2 104 38 177 51 104 122 169 269 243 88
45 311 190 360 234 5 4 -8 45 -27 91 -71 176 -97 346 -77 509 30 238 119 384
279 458 39 18 79 33 88 33 19 0 30 28 39 102 21 169 120 461 222 657 97 184
167 266 268 316 93 45 144 52 229 30z"/>
<path d="M3154 7086 c-38 -36 -154 -263 -208 -408 -102 -275 -133 -587 -78
-798 11 -41 18 -77 17 -78 -12 -12 -121 65 -186 131 -67 67 -81 77 -112 77
-50 0 -91 -42 -114 -116 -14 -46 -18 -91 -17 -209 0 -137 3 -158 28 -235 33
-99 73 -183 125 -260 21 -30 40 -60 44 -66 4 -8 -36 -43 -106 -93 -61 -44
-166 -123 -232 -175 -77 -61 -161 -117 -236 -155 -130 -68 -166 -98 -175 -146
-11 -61 33 -139 104 -185 l23 -15 -36 -100 c-86 -237 -172 -710 -211 -1155
-20 -243 -15 -613 11 -760 61 -337 210 -642 418 -852 87 -88 208 -173 219
-154 5 7 8 6 8 -4 0 -14 56 -47 73 -42 4 1 7 -2 7 -7 0 -6 9 -8 20 -6 11 2 20
-2 20 -8 0 -7 4 -6 10 3 6 10 10 11 10 3 0 -7 7 -13 15 -13 8 0 15 -8 15 -17
0 -14 2 -15 9 -5 7 11 11 11 24 -2 11 -12 17 -13 20 -3 4 8 8 9 14 1 4 -6 15
-13 24 -16 13 -5 16 -2 12 13 -3 10 -9 16 -14 13 -9 -5 -12 7 -10 36 0 11 -1
11 -5 2 -7 -16 -34 3 -34 24 0 8 -6 14 -13 14 -6 0 -27 17 -45 38 -19 20 -54
58 -78 84 -31 32 -42 52 -38 65 5 15 4 15 -5 3 -8 -12 -14 -10 -35 15 -14 17
-26 34 -26 39 0 5 -8 16 -18 25 -29 25 -182 240 -182 255 0 3 -13 26 -29 53
-17 26 -31 57 -33 68 -2 11 -9 26 -15 33 -11 12 -15 27 -12 48 0 4 -4 10 -9
13 -17 10 -51 126 -46 152 4 16 3 20 -4 11 -9 -14 -44 143 -57 263 -23 200 -6
621 36 935 69 511 131 776 225 963 46 92 96 167 107 160 6 -3 7 -1 3 5 -3 6 5
22 19 36 14 14 25 29 25 34 0 8 148 153 186 182 138 104 470 267 601 295 17 3
34 13 37 21 3 8 2 13 -3 9 -5 -3 -11 -2 -14 2 -2 5 -2 3 -1 -4 2 -7 -3 -10
-12 -6 -7 3 -14 10 -14 17 0 6 -5 4 -10 -4 -5 -8 -10 -10 -10 -5 0 6 -10 11
-22 11 -51 3 -78 9 -78 17 0 5 -7 7 -15 3 -11 -4 -15 1 -15 17 0 18 -2 19 -10
7 -9 -13 -10 -13 -10 0 0 12 -2 12 -8 2 -7 -9 -14 -7 -33 10 -26 24 -33 28
-49 28 -5 0 -10 6 -10 14 0 8 -8 13 -17 12 -10 0 -20 9 -24 24 -4 14 -7 19 -8
11 -1 -11 -4 -11 -16 -1 -8 7 -12 17 -8 24 3 6 2 8 -2 3 -9 -8 -65 40 -65 55
0 5 -9 19 -21 31 -31 33 -100 182 -102 221 -1 19 -5 32 -8 30 -7 -4 -20 78
-14 85 3 2 22 -12 44 -32 89 -80 315 -156 523 -176 126 -12 136 -11 142 6 3 8
2 12 -3 8 -23 -13 -201 210 -187 234 3 5 0 11 -7 14 -19 7 -59 121 -50 143 4
11 3 15 -4 11 -27 -17 -49 255 -32 393 12 95 56 293 77 344 l15 38 28 -77 c62
-169 187 -354 349 -515 182 -182 268 -236 775 -495 422 -215 619 -334 794
-480 196 -163 357 -402 412 -611 40 -154 35 -384 -12 -511 l-21 -54 -24 33
c-14 18 -22 38 -19 46 2 7 0 10 -5 7 -6 -3 -10 2 -11 12 0 10 -3 13 -5 6 -4
-8 -13 -5 -29 9 -14 12 -21 26 -18 32 3 6 3 8 -2 4 -4 -4 -26 3 -49 17 -22 13
-61 29 -86 35 -52 14 -170 20 -170 9 0 -4 -8 -8 -17 -8 -44 -2 -63 -6 -63 -12
0 -4 -13 -12 -30 -19 -63 -26 -119 -99 -190 -245 -68 -142 -100 -184 -207
-278 l-43 -37 16 -67 c12 -50 15 -95 11 -173 -11 -194 -86 -353 -246 -517 -11
-12 -16 -12 -23 -1 -7 10 -8 8 -4 -5 3 -11 -2 -24 -15 -35 -12 -9 -27 -23 -35
-30 -8 -7 -19 -10 -25 -6 -7 4 -9 3 -6 -3 8 -13 -60 -56 -74 -48 -5 4 -9 0 -9
-7 0 -18 -57 -51 -72 -42 -6 4 -8 3 -5 -3 6 -9 -128 -73 -153 -73 -5 0 -10 -5
-10 -11 0 -5 -4 -7 -10 -4 -5 3 -10 2 -10 -3 0 -5 35 -15 78 -22 42 -8 84 -15
92 -16 8 -2 67 -6 130 -10 126 -7 316 8 394 31 27 8 51 15 53 15 18 0 121
-288 168 -472 63 -244 105 -538 105 -738 0 -43 3 -91 6 -108 6 -27 9 -29 43
-25 53 6 76 10 76 13 0 2 79 11 108 11 9 0 17 4 17 7 0 4 8 8 18 9 29 2 71 11
80 17 5 3 23 8 41 11 45 8 163 68 239 122 l62 44 0 567 0 567 -37 20 c-112 60
-310 169 -326 180 -16 11 -14 15 20 41 232 176 363 460 363 788 l0 93 43 65
c98 146 149 335 149 548 0 153 -13 235 -57 367 -64 193 -155 340 -304 496
-116 121 -216 202 -381 311 -173 114 -248 156 -618 343 -464 235 -557 295
-725 468 -206 210 -354 462 -397 676 -22 109 -35 134 -77 142 -19 4 -34 -3
-59 -27z m2111 -3126 c18 -11 44 -37 58 -57 46 -67 59 -119 64 -254 5 -107 2
-138 -17 -215 -23 -92 -83 -232 -116 -272 l-19 -23 -1 78 c-1 56 -8 95 -25
138 -13 33 -22 64 -21 68 1 5 -1 6 -6 3 -5 -3 -25 15 -45 39 -52 62 -143 103
-257 118 l-88 11 45 50 c25 29 68 99 98 162 56 116 102 170 135 159 9 -3 28
-1 41 4 43 17 119 13 154 -9z m-413 -575 c90 -19 141 -35 134 -43 -3 -3 4 -10
17 -16 36 -19 51 -63 51 -151 -1 -88 -12 -120 -71 -192 -73 -91 -242 -186
-385 -218 -121 -26 -128 -21 -62 50 59 65 87 109 122 195 13 30 27 64 32 75
24 57 52 201 50 258 -2 64 1 65 112 42z"/>
<path d="M2991 5214 c0 -11 3 -14 6 -6 3 7 2 16 -1 19 -3 4 -6 -2 -5 -13z"/>
<path d="M3126 5193 c-6 -14 -5 -15 5 -6 7 7 10 15 7 18 -3 3 -9 -2 -12 -12z"/>
<path d="M3990 4461 c-103 -22 -204 -108 -237 -204 -25 -73 -23 -178 4 -239
30 -66 104 -141 166 -169 39 -18 70 -23 127 -24 127 0 229 65 287 183 24 49
28 69 28 142 0 74 -4 92 -29 142 -66 131 -206 199 -346 169z m214 -113 c15
-13 29 -37 32 -55 5 -27 1 -37 -24 -63 -39 -39 -74 -39 -113 -1 -38 38 -39 83
-3 116 34 31 75 32 108 3z"/>
<path d="M2640 4437 c-161 -45 -298 -192 -351 -374 -75 -261 3 -511 187 -598
244 -116 561 98 629 423 50 240 -44 460 -230 538 -52 21 -178 27 -235 11z"/>
<path d="M5810 3459 c-40 -16 -79 -60 -90 -100 -22 -79 44 -169 123 -169 155
0 202 206 60 266 -37 16 -58 17 -93 3z"/>
<path d="M4146 2768 l-16 -33 20 24 c11 13 20 27 20 32 0 17 -9 9 -24 -23z"/>
<path d="M4176 2775 c-9 -26 -7 -32 5 -12 6 10 9 21 6 23 -2 3 -7 -2 -11 -11z"/>
<path d="M2056 2693 c-6 -14 -5 -15 5 -6 7 7 10 15 7 18 -3 3 -9 -2 -12 -12z"/>
<path d="M2066 2565 c-9 -26 -7 -32 5 -12 6 10 9 21 6 23 -2 3 -7 -2 -11 -11z"/>
<path d="M2126 2485 c-9 -26 -7 -32 5 -12 6 10 9 21 6 23 -2 3 -7 -2 -11 -11z"/>
<path d="M2086 2405 c-9 -26 -7 -32 5 -12 6 10 9 21 6 23 -2 3 -7 -2 -11 -11z"/>
<path d="M2145 2089 c-4 -6 -5 -12 -2 -15 2 -3 7 2 10 11 7 17 1 20 -8 4z"/>
<path d="M2351 1714 c0 -11 3 -14 6 -6 3 7 2 16 -1 19 -3 4 -6 -2 -5 -13z"/>
<path d="M2381 1664 c0 -11 3 -14 6 -6 3 7 2 16 -1 19 -3 4 -6 -2 -5 -13z"/>
</g>
</svg>
