<svg id="visual" viewBox="0 0 900 600" width="900" height="600" xmlns="http://www.w3.org/2000/svg" xmlns:xlink="http://www.w3.org/1999/xlink" version="1.1"><g stroke-width="1" stroke-linejoin="bevel"><path d="M458 319L434 339L459 352.7Z" fill="#131e2b" stroke="#131e2b"></path><path d="M434 339L438 367L459 352.7Z" fill="#0e1622" stroke="#0e1622"></path><path d="M428 358.9L438 367L434 339Z" fill="#101a26" stroke="#101a26"></path><path d="M459 352.7L491 318.1L458 319Z" fill="#131d2a" stroke="#131d2a"></path><path d="M429 252.3L409 302.1L458 319Z" fill="#131d2a" stroke="#131d2a"></path><path d="M458 319L409 302.1L434 339Z" fill="#0d1521" stroke="#0d1521"></path><path d="M434 339L408 369L428 358.9Z" fill="#121c28" stroke="#121c28"></path><path d="M409 302.1L408 369L434 339Z" fill="#131e2b" stroke="#131e2b"></path><path d="M428 358.9L408 369L438 367Z" fill="#101a26" stroke="#101a26"></path><path d="M408 369L418 396.7L438 367Z" fill="#121c28" stroke="#121c28"></path><path d="M497 395.4L509 381L459 352.7Z" fill="#131d2a" stroke="#131d2a"></path><path d="M497 395.4L459 352.7L490 406.4Z" fill="#131d2a" stroke="#131d2a"></path><path d="M459 352.7L509 381L491 318.1Z" fill="#101a26" stroke="#101a26"></path><path d="M490 406.4L459 352.7L438 367Z" fill="#131e2b" stroke="#131e2b"></path><path d="M418 396.7L490 406.4L438 367Z" fill="#0f1723" stroke="#0f1723"></path><path d="M560 405.9L575 354.1L509 381Z" fill="#0e1622" stroke="#0e1622"></path><path d="M409 302.1L374 361L408 369Z" fill="#121c28" stroke="#121c28"></path><path d="M408 369L382 402.6L418 396.7Z" fill="#131e2b" stroke="#131e2b"></path><path d="M505 236.4L429 252.3L458 319Z" fill="#0d1521" stroke="#0d1521"></path><path d="M350 315.7L362 358L374 361Z" fill="#141f2d" stroke="#141f2d"></path><path d="M350 315.7L374 361L409 302.1Z" fill="#121c28" stroke="#121c28"></path><path d="M374 361L382 402.6L408 369Z" fill="#131d2a" stroke="#131d2a"></path><path d="M362 358L382 402.6L374 361Z" fill="#0f1723" stroke="#0f1723"></path><path d="M418 396.7L427 443.6L490 406.4Z" fill="#0e1622" stroke="#0e1622"></path><path d="M393 249.9L350 315.7L409 302.1Z" fill="#15202e" stroke="#15202e"></path><path d="M429 252.3L393 249.9L409 302.1Z" fill="#0e1622" stroke="#0e1622"></path><path d="M382 402.6L427 443.6L418 396.7Z" fill="#0d1521" stroke="#0d1521"></path><path d="M350 315.7L342 361.9L362 358Z" fill="#0e1622" stroke="#0e1622"></path><path d="M362 358L335 374.9L382 402.6Z" fill="#0e1622" stroke="#0e1622"></path><path d="M555 271.1L505 236.4L491 318.1Z" fill="#101a26" stroke="#101a26"></path><path d="M491 318.1L505 236.4L458 319Z" fill="#0f1723" stroke="#0f1723"></path><path d="M429 252.3L407 229.4L393 249.9Z" fill="#0d1521" stroke="#0d1521"></path><path d="M412 224.1L407 229.4L429 252.3Z" fill="#0f1723" stroke="#0f1723"></path><path d="M416 211.6L412 224.1L429 252.3Z" fill="#101a26" stroke="#101a26"></path><path d="M582 293.1L555 271.1L491 318.1Z" fill="#131e2b" stroke="#131e2b"></path><path d="M407 229.4L374 241.3L393 249.9Z" fill="#101a26" stroke="#101a26"></path><path d="M393 249.9L374 241.3L350 315.7Z" fill="#0f1723" stroke="#0f1723"></path><path d="M416 211.6L374 241.3L407 229.4Z" fill="#121c28" stroke="#121c28"></path><path d="M301 347.1L335 374.9L342 361.9Z" fill="#0d1521" stroke="#0d1521"></path><path d="M342 361.9L335 374.9L362 358Z" fill="#0f1723" stroke="#0f1723"></path><path d="M382 402.6L411 459.3L427 443.6Z" fill="#0f1723" stroke="#0f1723"></path><path d="M560 405.9L509 381L548 426.6Z" fill="#111b27" stroke="#111b27"></path><path d="M509 381L575 354.1L491 318.1Z" fill="#0e1622" stroke="#0e1622"></path><path d="M540 212.3L496 219.1L505 236.4Z" fill="#0f1925" stroke="#0f1925"></path><path d="M505 236.4L496 219.1L429 252.3Z" fill="#131e2b" stroke="#131e2b"></path><path d="M548 426.6L497 395.4L490 406.4Z" fill="#0d1521" stroke="#0d1521"></path><path d="M548 426.6L509 381L497 395.4Z" fill="#0f1925" stroke="#0f1925"></path><path d="M496 219.1L416 211.6L429 252.3Z" fill="#0f1925" stroke="#0f1925"></path><path d="M412 224.1L416 211.6L407 229.4Z" fill="#0f1925" stroke="#0f1925"></path><path d="M383 477.6L411 459.3L375 474.1Z" fill="#111b27" stroke="#111b27"></path><path d="M483 470.4L548 426.6L490 406.4Z" fill="#0f1925" stroke="#0f1925"></path><path d="M483 470.4L490 406.4L427 443.6Z" fill="#131d2a" stroke="#131d2a"></path><path d="M575 354.1L582 293.1L491 318.1Z" fill="#121c28" stroke="#121c28"></path><path d="M555 271.1L540 212.3L505 236.4Z" fill="#0f1723" stroke="#0f1723"></path><path d="M374 241.3L316 317.7L350 315.7Z" fill="#141f2d" stroke="#141f2d"></path><path d="M350 315.7L316 317.7L342 361.9Z" fill="#141f2d" stroke="#141f2d"></path><path d="M443 478.1L483 470.4L427 443.6Z" fill="#101a26" stroke="#101a26"></path><path d="M411 459.3L443 478.1L427 443.6Z" fill="#131e2b" stroke="#131e2b"></path><path d="M474 481.3L482 478.7L483 470.4Z" fill="#0d1521" stroke="#0d1521"></path><path d="M483 470.4L554 468.7L548 426.6Z" fill="#141f2d" stroke="#141f2d"></path><path d="M443 478.1L474 481.3L483 470.4Z" fill="#15202e" stroke="#15202e"></path><path d="M560 405.9L599 357.9L575 354.1Z" fill="#111b27" stroke="#111b27"></path><path d="M575 354.1L594 291.9L582 293.1Z" fill="#0f1723" stroke="#0f1723"></path><path d="M625 365L599 357.9L560 405.9Z" fill="#101a26" stroke="#101a26"></path><path d="M599 357.9L594 291.9L575 354.1Z" fill="#111b27" stroke="#111b27"></path><path d="M582 293.1L591 274.9L555 271.1Z" fill="#141f2d" stroke="#141f2d"></path><path d="M316 317.7L301 347.1L342 361.9Z" fill="#0e1622" stroke="#0e1622"></path><path d="M375 474.1L411 459.3L382 402.6Z" fill="#0e1622" stroke="#0e1622"></path><path d="M591 274.9L540 212.3L555 271.1Z" fill="#141f2d" stroke="#141f2d"></path><path d="M496 219.1L464 149.7L416 211.6Z" fill="#0d1521" stroke="#0d1521"></path><path d="M594 291.9L591 274.9L582 293.1Z" fill="#0f1925" stroke="#0f1925"></path><path d="M375 474.1L382 402.6L319 457.6Z" fill="#0f1723" stroke="#0f1723"></path><path d="M411 459.3L383 477.6L443 478.1Z" fill="#0e1622" stroke="#0e1622"></path><path d="M443 478.1L446 524.6L474 481.3Z" fill="#141f2d" stroke="#141f2d"></path><path d="M375 478.1L375 474.1L326 480.4Z" fill="#121c28" stroke="#121c28"></path><path d="M319 457.6L382 402.6L335 374.9Z" fill="#131d2a" stroke="#131d2a"></path><path d="M375 474.1L375 478.1L383 477.6Z" fill="#15202e" stroke="#15202e"></path><path d="M383 477.6L446 524.6L443 478.1Z" fill="#141f2d" stroke="#141f2d"></path><path d="M301 347.1L298 390.7L335 374.9Z" fill="#141f2d" stroke="#141f2d"></path><path d="M482 478.7L554 468.7L483 470.4Z" fill="#131d2a" stroke="#131d2a"></path><path d="M548 426.6L582 456.3L560 405.9Z" fill="#121c28" stroke="#121c28"></path><path d="M579 481.7L554 468.7L546 559.1Z" fill="#0d1521" stroke="#0d1521"></path><path d="M540 212.3L500 174.4L496 219.1Z" fill="#121c28" stroke="#121c28"></path><path d="M633 293L615 277L594 291.9Z" fill="#0f1723" stroke="#0f1723"></path><path d="M594 291.9L615 277L591 274.9Z" fill="#101a26" stroke="#101a26"></path><path d="M606 202.3L574 177.6L540 212.3Z" fill="#0f1925" stroke="#0f1925"></path><path d="M540 212.3L574 177.6L500 174.4Z" fill="#111b27" stroke="#111b27"></path><path d="M638 441.7L625 365L560 405.9Z" fill="#0f1925" stroke="#0f1925"></path><path d="M599 357.9L633 293L594 291.9Z" fill="#121c28" stroke="#121c28"></path><path d="M554 468.7L582 456.3L548 426.6Z" fill="#131d2a" stroke="#131d2a"></path><path d="M298 390.7L319 457.6L335 374.9Z" fill="#0d1521" stroke="#0d1521"></path><path d="M625 365L633 293L599 357.9Z" fill="#15202e" stroke="#15202e"></path><path d="M606 202.3L540 212.3L591 274.9Z" fill="#0d1521" stroke="#0d1521"></path><path d="M500 174.4L464 149.7L496 219.1Z" fill="#0f1723" stroke="#0f1723"></path><path d="M416 211.6L341 183.3L374 241.3Z" fill="#0f1925" stroke="#0f1925"></path><path d="M358 509.3L383 477.6L375 478.1Z" fill="#15202e" stroke="#15202e"></path><path d="M358 509.3L446 524.6L383 477.6Z" fill="#0f1925" stroke="#0f1925"></path><path d="M474 481.3L446 524.6L482 478.7Z" fill="#131d2a" stroke="#131d2a"></path><path d="M554 468.7L579 481.7L582 456.3Z" fill="#131e2b" stroke="#131e2b"></path><path d="M373 146.6L341 183.3L416 211.6Z" fill="#101a26" stroke="#101a26"></path><path d="M374 241.3L262 278.1L316 317.7Z" fill="#131e2b" stroke="#131e2b"></path><path d="M316 317.7L262 278.1L301 347.1Z" fill="#0f1925" stroke="#0f1925"></path><path d="M320 478.7L326 480.4L319 457.6Z" fill="#101a26" stroke="#101a26"></path><path d="M319 457.6L326 480.4L375 474.1Z" fill="#15202e" stroke="#15202e"></path><path d="M546 559.1L554 468.7L482 478.7Z" fill="#0e1622" stroke="#0e1622"></path><path d="M582 456.3L638 441.7L560 405.9Z" fill="#0f1925" stroke="#0f1925"></path><path d="M276 448.3L320 478.7L319 457.6Z" fill="#121c28" stroke="#121c28"></path><path d="M326 480.4L358 509.3L375 478.1Z" fill="#141f2d" stroke="#141f2d"></path><path d="M308 534.4L358 509.3L326 480.4Z" fill="#0f1723" stroke="#0f1723"></path><path d="M279 199.3L262 278.1L374 241.3Z" fill="#131e2b" stroke="#131e2b"></path><path d="M301 347.1L211 372L298 390.7Z" fill="#141f2d" stroke="#141f2d"></path><path d="M298 390.7L276 448.3L319 457.6Z" fill="#15202e" stroke="#15202e"></path><path d="M606 202.3L591 274.9L615 277Z" fill="#15202e" stroke="#15202e"></path><path d="M500 174.4L497 116.4L464 149.7Z" fill="#0d1521" stroke="#0d1521"></path><path d="M646 229.4L606 202.3L615 277Z" fill="#121c28" stroke="#121c28"></path><path d="M404 132.6L373 146.6L416 211.6Z" fill="#131e2b" stroke="#131e2b"></path><path d="M322 136.3L317 180.6L341 183.3Z" fill="#0f1925" stroke="#0f1925"></path><path d="M341 183.3L317 180.6L374 241.3Z" fill="#101a26" stroke="#101a26"></path><path d="M247 459.7L276 448.3L215 431.7Z" fill="#0d1521" stroke="#0d1521"></path><path d="M308 534.4L366 547.4L358 509.3Z" fill="#15202e" stroke="#15202e"></path><path d="M464 149.7L404 132.6L416 211.6Z" fill="#15202e" stroke="#15202e"></path><path d="M444 77.4L404 132.6L464 149.7Z" fill="#141f2d" stroke="#141f2d"></path><path d="M603 488.3L582 456.3L579 481.7Z" fill="#0d1521" stroke="#0d1521"></path><path d="M603 488.3L615 470.4L582 456.3Z" fill="#121c28" stroke="#121c28"></path><path d="M718 285.3L660 267.9L633 293Z" fill="#121c28" stroke="#121c28"></path><path d="M615 470.4L638 441.7L582 456.3Z" fill="#101a26" stroke="#101a26"></path><path d="M609 492.4L603 488.3L605 510.1Z" fill="#121c28" stroke="#121c28"></path><path d="M615 470.4L618 482.7L638 441.7Z" fill="#111b27" stroke="#111b27"></path><path d="M682 252.4L660 267.9L718 285.3Z" fill="#121c28" stroke="#121c28"></path><path d="M633 293L660 267.9L615 277Z" fill="#0e1622" stroke="#0e1622"></path><path d="M317 180.6L279 199.3L374 241.3Z" fill="#111b27" stroke="#111b27"></path><path d="M298 173.6L279 199.3L317 180.6Z" fill="#131d2a" stroke="#131d2a"></path><path d="M660 267.9L646 229.4L615 277Z" fill="#141f2d" stroke="#141f2d"></path><path d="M611 145.3L550 124.3L574 177.6Z" fill="#121c28" stroke="#121c28"></path><path d="M603 488.3L618 482.7L615 470.4Z" fill="#121c28" stroke="#121c28"></path><path d="M605 510.1L603 488.3L579 481.7Z" fill="#0d1521" stroke="#0d1521"></path><path d="M603 488.3L609 492.4L618 482.7Z" fill="#0e1622" stroke="#0e1622"></path><path d="M322 136.3L341 183.3L373 146.6Z" fill="#0f1723" stroke="#0f1723"></path><path d="M301 149.4L298 173.6L317 180.6Z" fill="#111b27" stroke="#111b27"></path><path d="M550 124.3L500 174.4L574 177.6Z" fill="#121c28" stroke="#121c28"></path><path d="M550 124.3L497 116.4L500 174.4Z" fill="#131e2b" stroke="#131e2b"></path><path d="M308 534.4L326 480.4L320 478.7Z" fill="#111b27" stroke="#111b27"></path><path d="M358 509.3L366 547.4L446 524.6Z" fill="#141f2d" stroke="#141f2d"></path><path d="M604 518.4L605 510.1L579 481.7Z" fill="#0d1521" stroke="#0d1521"></path><path d="M241 218.6L231 269.9L262 278.1Z" fill="#0d1521" stroke="#0d1521"></path><path d="M262 278.1L217 298L301 347.1Z" fill="#0f1723" stroke="#0f1723"></path><path d="M480 571.3L482 478.7L446 524.6Z" fill="#0d1521" stroke="#0d1521"></path><path d="M609 492.4L605 510.1L618 482.7Z" fill="#15202e" stroke="#15202e"></path><path d="M618 482.7L674 459.6L638 441.7Z" fill="#101a26" stroke="#101a26"></path><path d="M247 459.7L285 498.6L276 448.3Z" fill="#131d2a" stroke="#131d2a"></path><path d="M276 448.3L285 498.6L320 478.7Z" fill="#0f1925" stroke="#0f1925"></path><path d="M611 145.3L574 177.6L606 202.3Z" fill="#131e2b" stroke="#131e2b"></path><path d="M369 111.9L366 116.4L404 132.6Z" fill="#131d2a" stroke="#131d2a"></path><path d="M404 132.6L366 116.4L373 146.6Z" fill="#141f2d" stroke="#141f2d"></path><path d="M449 600L480 571.3L448 600Z" fill="#15202e" stroke="#15202e"></path><path d="M546 559.1L604 518.4L579 481.7Z" fill="#0f1723" stroke="#0f1723"></path><path d="M605 510.1L683 574.1L618 482.7Z" fill="#121c28" stroke="#121c28"></path><path d="M231 269.9L217 298L262 278.1Z" fill="#121c28" stroke="#121c28"></path><path d="M350 119.3L322 136.3L373 146.6Z" fill="#111b27" stroke="#111b27"></path><path d="M298 173.6L282 166.1L279 199.3Z" fill="#0f1925" stroke="#0f1925"></path><path d="M392 57.7L369 111.9L404 132.6Z" fill="#121c28" stroke="#121c28"></path><path d="M366 116.4L350 119.3L373 146.6Z" fill="#15202e" stroke="#15202e"></path><path d="M215 431.7L276 448.3L298 390.7Z" fill="#141f2d" stroke="#141f2d"></path><path d="M369 111.9L350 119.3L366 116.4Z" fill="#131e2b" stroke="#131e2b"></path><path d="M322 136.3L301 149.4L317 180.6Z" fill="#101a26" stroke="#101a26"></path><path d="M279 199.3L241 218.6L262 278.1Z" fill="#0d1521" stroke="#0d1521"></path><path d="M301 149.4L282 166.1L298 173.6Z" fill="#0f1925" stroke="#0f1925"></path><path d="M231 269.9L212 274.9L217 298Z" fill="#0d1521" stroke="#0d1521"></path><path d="M259 182.7L241 218.6L279 199.3Z" fill="#121c28" stroke="#121c28"></path><path d="M480 571.3L546 559.1L482 478.7Z" fill="#131d2a" stroke="#131d2a"></path><path d="M208 361.6L211 372L301 347.1Z" fill="#0e1622" stroke="#0e1622"></path><path d="M660 267.9L682 252.4L646 229.4Z" fill="#0f1925" stroke="#0f1925"></path><path d="M672 175.1L611 145.3L606 202.3Z" fill="#141f2d" stroke="#141f2d"></path><path d="M718 285.3L633 293L625 365Z" fill="#141f2d" stroke="#141f2d"></path><path d="M244 544.1L308 534.4L285 498.6Z" fill="#121c28" stroke="#121c28"></path><path d="M285 498.6L308 534.4L320 478.7Z" fill="#15202e" stroke="#15202e"></path><path d="M217 298L208 361.6L301 347.1Z" fill="#0d1521" stroke="#0d1521"></path><path d="M282 166.1L259 182.7L279 199.3Z" fill="#15202e" stroke="#15202e"></path><path d="M238 167.1L259 182.7L282 166.1Z" fill="#0f1925" stroke="#0f1925"></path><path d="M241 218.6L212 274.9L231 269.9Z" fill="#101a26" stroke="#101a26"></path><path d="M217 298L173 365.6L208 361.6Z" fill="#0e1622" stroke="#0e1622"></path><path d="M172 253.9L212 274.9L241 218.6Z" fill="#0f1723" stroke="#0f1723"></path><path d="M672 175.1L606 202.3L646 229.4Z" fill="#121c28" stroke="#121c28"></path><path d="M683 574.1L674 459.6L618 482.7Z" fill="#0f1723" stroke="#0f1723"></path><path d="M638 441.7L703 435.6L625 365Z" fill="#0d1521" stroke="#0d1521"></path><path d="M322 136.3L298 132.3L301 149.4Z" fill="#121c28" stroke="#121c28"></path><path d="M301 149.4L277 135.7L282 166.1Z" fill="#131d2a" stroke="#131d2a"></path><path d="M350 119.3L298 132.3L322 136.3Z" fill="#111b27" stroke="#111b27"></path><path d="M330 49.7L298 132.3L350 119.3Z" fill="#131e2b" stroke="#131e2b"></path><path d="M211 372L215 431.7L298 390.7Z" fill="#131e2b" stroke="#131e2b"></path><path d="M247 459.7L244 544.1L285 498.6Z" fill="#101a26" stroke="#101a26"></path><path d="M173 365.6L215 431.7L211 372Z" fill="#111b27" stroke="#111b27"></path><path d="M215 431.7L216 436.6L247 459.7Z" fill="#0e1622" stroke="#0e1622"></path><path d="M726 537.4L678 458.6L674 459.6Z" fill="#0e1622" stroke="#0e1622"></path><path d="M674 459.6L678 458.6L638 441.7Z" fill="#121c28" stroke="#121c28"></path><path d="M461 0L444 77.4L477 -4.3Z" fill="#101a26" stroke="#101a26"></path><path d="M497 116.4L444 77.4L464 149.7Z" fill="#0d1521" stroke="#0d1521"></path><path d="M281 44.9L277 135.7L298 132.3Z" fill="#0d1521" stroke="#0d1521"></path><path d="M576 72.9L497 116.4L550 124.3Z" fill="#15202e" stroke="#15202e"></path><path d="M611 145.3L580 105.4L550 124.3Z" fill="#131e2b" stroke="#131e2b"></path><path d="M718 285.3L697 238.1L682 252.4Z" fill="#15202e" stroke="#15202e"></path><path d="M682 252.4L697 238.1L646 229.4Z" fill="#15202e" stroke="#15202e"></path><path d="M611 145.3L641 136.7L580 105.4Z" fill="#101a26" stroke="#101a26"></path><path d="M448 600L480 571.3L446 524.6Z" fill="#15202e" stroke="#15202e"></path><path d="M480 571.3L520 600L546 559.1Z" fill="#0e1622" stroke="#0e1622"></path><path d="M448 600L446 524.6L413 600Z" fill="#0f1925" stroke="#0f1925"></path><path d="M413 600L446 524.6L366 547.4Z" fill="#0e1622" stroke="#0e1622"></path><path d="M330 49.7L350 119.3L369 111.9Z" fill="#0f1723" stroke="#0f1723"></path><path d="M298 132.3L277 135.7L301 149.4Z" fill="#121c28" stroke="#121c28"></path><path d="M259 182.7L238 167.1L241 218.6Z" fill="#0f1925" stroke="#0f1925"></path><path d="M393 600L413 600L366 547.4Z" fill="#0d1521" stroke="#0d1521"></path><path d="M678 458.6L703 435.6L638 441.7Z" fill="#111b27" stroke="#111b27"></path><path d="M321 600L393 600L366 547.4Z" fill="#141f2d" stroke="#141f2d"></path><path d="M720 398.7L718 285.3L625 365Z" fill="#131d2a" stroke="#131d2a"></path><path d="M678 458.6L696 455.4L703 435.6Z" fill="#0d1521" stroke="#0d1521"></path><path d="M726 537.4L696 455.4L678 458.6Z" fill="#131d2a" stroke="#131d2a"></path><path d="M683 574.1L605 510.1L604 518.4Z" fill="#101a26" stroke="#101a26"></path><path d="M277 135.7L238 167.1L282 166.1Z" fill="#131e2b" stroke="#131e2b"></path><path d="M503 617.1L520 600L480 571.3Z" fill="#15202e" stroke="#15202e"></path><path d="M629 600L634 596.3L604 518.4Z" fill="#131d2a" stroke="#131d2a"></path><path d="M711 177.7L672 175.1L697 238.1Z" fill="#101a26" stroke="#101a26"></path><path d="M697 238.1L672 175.1L646 229.4Z" fill="#0f1925" stroke="#0f1925"></path><path d="M672 175.1L641 136.7L611 145.3Z" fill="#101a26" stroke="#101a26"></path><path d="M781 349.6L720 398.7L781 384.7Z" fill="#101a26" stroke="#101a26"></path><path d="M703 435.6L720 398.7L625 365Z" fill="#0d1521" stroke="#0d1521"></path><path d="M720 398.7L727 285.9L718 285.3Z" fill="#0e1622" stroke="#0e1622"></path><path d="M718 285.3L727 285.9L697 238.1Z" fill="#131e2b" stroke="#131e2b"></path><path d="M145 347.6L173 365.6L217 298Z" fill="#0e1622" stroke="#0e1622"></path><path d="M208 361.6L173 365.6L211 372Z" fill="#0d1521" stroke="#0d1521"></path><path d="M215 431.7L190 449.4L216 436.6Z" fill="#0e1622" stroke="#0e1622"></path><path d="M172 253.9L217 298L212 274.9Z" fill="#101a26" stroke="#101a26"></path><path d="M399 6.7L392 57.7L410 0Z" fill="#0f1925" stroke="#0f1925"></path><path d="M444 77.4L392 57.7L404 132.6Z" fill="#101a26" stroke="#101a26"></path><path d="M177 449.7L190 449.4L215 431.7Z" fill="#0f1925" stroke="#0f1925"></path><path d="M216 436.6L190 449.4L247 459.7Z" fill="#0e1622" stroke="#0e1622"></path><path d="M308 534.4L321 600L366 547.4Z" fill="#131d2a" stroke="#131d2a"></path><path d="M449 600L503 617.1L480 571.3Z" fill="#15202e" stroke="#15202e"></path><path d="M629 600L604 518.4L546 559.1Z" fill="#0f1925" stroke="#0f1925"></path><path d="M448 600L503 617.1L449 600Z" fill="#0e1622" stroke="#0e1622"></path><path d="M413 600L503 617.1L448 600Z" fill="#15202e" stroke="#15202e"></path><path d="M310 617.1L503 617.1L413 600Z" fill="#0f1723" stroke="#0f1723"></path><path d="M583 58.9L576 72.9L642 64.6Z" fill="#121c28" stroke="#121c28"></path><path d="M580 105.4L576 72.9L550 124.3Z" fill="#111b27" stroke="#111b27"></path><path d="M180 199.1L172 253.9L241 218.6Z" fill="#101a26" stroke="#101a26"></path><path d="M184 534.3L244 544.1L247 459.7Z" fill="#131d2a" stroke="#131d2a"></path><path d="M277 574.3L321 600L308 534.4Z" fill="#121c28" stroke="#121c28"></path><path d="M393 600L310 617.1L413 600Z" fill="#111b27" stroke="#111b27"></path><path d="M205 90.4L223 149.4L277 135.7Z" fill="#111b27" stroke="#111b27"></path><path d="M277 135.7L223 149.4L238 167.1Z" fill="#111b27" stroke="#111b27"></path><path d="M238 167.1L180 199.1L241 218.6Z" fill="#131d2a" stroke="#131d2a"></path><path d="M244 544.1L277 574.3L308 534.4Z" fill="#0d1521" stroke="#0d1521"></path><path d="M173 365.6L177 449.7L215 431.7Z" fill="#0f1925" stroke="#0f1925"></path><path d="M184 534.3L209 562.1L244 544.1Z" fill="#15202e" stroke="#15202e"></path><path d="M753 178.7L711 177.7L697 238.1Z" fill="#141f2d" stroke="#141f2d"></path><path d="M730 139.6L669 84.6L641 136.7Z" fill="#141f2d" stroke="#141f2d"></path><path d="M642 64.6L576 72.9L580 105.4Z" fill="#0f1723" stroke="#0f1723"></path><path d="M193 152.6L180 199.1L238 167.1Z" fill="#131d2a" stroke="#131d2a"></path><path d="M642 64.6L580 105.4L641 136.7Z" fill="#0f1723" stroke="#0f1723"></path><path d="M461 0L446 0L444 77.4Z" fill="#111b27" stroke="#111b27"></path><path d="M132 286.9L145 347.6L217 298Z" fill="#101a26" stroke="#101a26"></path><path d="M108 431.9L143 469.1L177 449.7Z" fill="#111b27" stroke="#111b27"></path><path d="M132 286.9L217 298L172 253.9Z" fill="#131d2a" stroke="#131d2a"></path><path d="M362 0L330 49.7L392 57.7Z" fill="#0f1925" stroke="#0f1925"></path><path d="M392 57.7L330 49.7L369 111.9Z" fill="#131d2a" stroke="#131d2a"></path><path d="M278 600L321 600L277 574.3Z" fill="#0e1622" stroke="#0e1622"></path><path d="M278 600L310 617.1L321 600Z" fill="#121c28" stroke="#121c28"></path><path d="M321 600L310 617.1L393 600Z" fill="#111b27" stroke="#111b27"></path><path d="M248 600L277 574.3L244 544.1Z" fill="#0f1925" stroke="#0f1925"></path><path d="M248 600L278 600L277 574.3Z" fill="#0e1622" stroke="#0e1622"></path><path d="M223 149.4L193 152.6L238 167.1Z" fill="#131e2b" stroke="#131e2b"></path><path d="M205 90.4L193 152.6L223 149.4Z" fill="#0f1723" stroke="#0f1723"></path><path d="M629 600L546 559.1L520 600Z" fill="#0d1521" stroke="#0d1521"></path><path d="M503 617.1L629 600L520 600Z" fill="#131e2b" stroke="#131e2b"></path><path d="M781 349.6L772 302.3L727 285.9Z" fill="#0f1723" stroke="#0f1723"></path><path d="M727 285.9L778 227.3L697 238.1Z" fill="#0f1925" stroke="#0f1925"></path><path d="M781 349.6L727 285.9L720 398.7Z" fill="#131e2b" stroke="#131e2b"></path><path d="M720 398.7L779 432.7L781 384.7Z" fill="#111b27" stroke="#111b27"></path><path d="M149 206.6L172 253.9L180 199.1Z" fill="#131d2a" stroke="#131d2a"></path><path d="M108 220.4L132 286.9L172 253.9Z" fill="#131d2a" stroke="#131d2a"></path><path d="M158 161.4L149 206.6L180 199.1Z" fill="#131e2b" stroke="#131e2b"></path><path d="M720 398.7L703 435.6L779 432.7Z" fill="#0d1521" stroke="#0d1521"></path><path d="M669 84.6L642 64.6L641 136.7Z" fill="#0f1925" stroke="#0f1925"></path><path d="M673 593.1L683 574.1L634 596.3Z" fill="#111b27" stroke="#111b27"></path><path d="M634 596.3L683 574.1L604 518.4Z" fill="#0f1925" stroke="#0f1925"></path><path d="M184 534.3L247 459.7L190 449.4Z" fill="#0f1925" stroke="#0f1925"></path><path d="M184 534.3L190 449.4L146 478.4Z" fill="#0e1622" stroke="#0e1622"></path><path d="M781 349.6L783 309L772 302.3Z" fill="#141f2d" stroke="#141f2d"></path><path d="M772 302.3L779 266.1L727 285.9Z" fill="#131d2a" stroke="#131d2a"></path><path d="M730 139.6L641 136.7L672 175.1Z" fill="#131e2b" stroke="#131e2b"></path><path d="M730 139.6L672 175.1L711 177.7Z" fill="#15202e" stroke="#15202e"></path><path d="M779 432.7L703 435.6L696 455.4Z" fill="#131d2a" stroke="#131d2a"></path><path d="M781 349.6L802 349.1L783 309Z" fill="#101a26" stroke="#101a26"></path><path d="M177 449.7L173 365.6L119 396.4Z" fill="#0e1622" stroke="#0e1622"></path><path d="M146 478.4L190 449.4L177 449.7Z" fill="#0f1723" stroke="#0f1723"></path><path d="M218 588.3L248 600L244 544.1Z" fill="#15202e" stroke="#15202e"></path><path d="M278 600L241 619.1L310 617.1Z" fill="#121c28" stroke="#121c28"></path><path d="M446 0L392 57.7L444 77.4Z" fill="#131d2a" stroke="#131d2a"></path><path d="M497 116.4L503 0L444 77.4Z" fill="#0f1723" stroke="#0f1723"></path><path d="M783 309L779 266.1L772 302.3Z" fill="#0f1925" stroke="#0f1925"></path><path d="M781 384.7L784 378.9L781 349.6Z" fill="#121c28" stroke="#121c28"></path><path d="M629 600L652 605.3L634 596.3Z" fill="#111b27" stroke="#111b27"></path><path d="M503 617.1L652 605.3L629 600Z" fill="#0e1622" stroke="#0e1622"></path><path d="M497 116.4L576 72.9L503 0Z" fill="#101a26" stroke="#101a26"></path><path d="M503 0L576 72.9L541 0Z" fill="#121c28" stroke="#121c28"></path><path d="M119 396.4L173 365.6L145 347.6Z" fill="#131d2a" stroke="#131d2a"></path><path d="M143 469.1L146 478.4L177 449.7Z" fill="#131e2b" stroke="#131e2b"></path><path d="M321 0L281 44.9L330 49.7Z" fill="#131e2b" stroke="#131e2b"></path><path d="M330 49.7L281 44.9L298 132.3Z" fill="#101a26" stroke="#101a26"></path><path d="M85 352.1L119 396.4L145 347.6Z" fill="#131d2a" stroke="#131d2a"></path><path d="M143 469.1L62 547.1L146 478.4Z" fill="#101a26" stroke="#101a26"></path><path d="M446 0L410 0L392 57.7Z" fill="#121c28" stroke="#121c28"></path><path d="M399 6.7L365 0L392 57.7Z" fill="#111b27" stroke="#111b27"></path><path d="M652 605.3L673 593.1L634 596.3Z" fill="#0e1622" stroke="#0e1622"></path><path d="M778 227.3L753 178.7L697 238.1Z" fill="#0d1521" stroke="#0d1521"></path><path d="M541 0L576 72.9L583 58.9Z" fill="#0f1723" stroke="#0f1723"></path><path d="M744 549.1L726 537.4L736 576.3Z" fill="#111b27" stroke="#111b27"></path><path d="M683 574.1L726 537.4L674 459.6Z" fill="#131d2a" stroke="#131d2a"></path><path d="M781 384.7L846 396.6L784 378.9Z" fill="#101a26" stroke="#101a26"></path><path d="M753 178.7L730 139.6L711 177.7Z" fill="#131e2b" stroke="#131e2b"></path><path d="M218 588.3L244 544.1L209 562.1Z" fill="#121c28" stroke="#121c28"></path><path d="M218 588.3L239 602.3L248 600Z" fill="#121c28" stroke="#121c28"></path><path d="M248 600L241 619.1L278 600Z" fill="#131d2a" stroke="#131d2a"></path><path d="M791 456.4L779 432.7L696 455.4Z" fill="#0f1723" stroke="#0f1723"></path><path d="M461 0L477 -4.3L446 0Z" fill="#101a26" stroke="#101a26"></path><path d="M332 -53.1L340 -33.1L410 0Z" fill="#141f2d" stroke="#141f2d"></path><path d="M503 0L477 -4.3L444 77.4Z" fill="#0f1925" stroke="#0f1925"></path><path d="M158 154.3L158 161.4L193 152.6Z" fill="#15202e" stroke="#15202e"></path><path d="M193 152.6L158 161.4L180 199.1Z" fill="#111b27" stroke="#111b27"></path><path d="M91 262.9L100 288L132 286.9Z" fill="#131d2a" stroke="#131d2a"></path><path d="M669 84.6L676 77.9L642 64.6Z" fill="#141f2d" stroke="#141f2d"></path><path d="M545 -2.3L541 0L570 -2.3Z" fill="#131e2b" stroke="#131e2b"></path><path d="M736 121.3L676 77.9L669 84.6Z" fill="#101a26" stroke="#101a26"></path><path d="M815 276.1L778 227.3L779 266.1Z" fill="#111b27" stroke="#111b27"></path><path d="M779 266.1L778 227.3L727 285.9Z" fill="#0f1723" stroke="#0f1723"></path><path d="M162 590.3L218 588.3L209 562.1Z" fill="#0d1521" stroke="#0d1521"></path><path d="M162 590.3L209 562.1L184 534.3Z" fill="#131d2a" stroke="#131d2a"></path><path d="M205 90.4L158 154.3L193 152.6Z" fill="#0f1925" stroke="#0f1925"></path><path d="M158 161.4L138 170.6L149 206.6Z" fill="#101a26" stroke="#101a26"></path><path d="M218 588.3L227 600L239 602.3Z" fill="#131d2a" stroke="#131d2a"></path><path d="M239 602.3L241 619.1L248 600Z" fill="#0f1925" stroke="#0f1925"></path><path d="M340 -33.1L365 0L410 0Z" fill="#111b27" stroke="#111b27"></path><path d="M410 0L365 0L399 6.7Z" fill="#0e1622" stroke="#0e1622"></path><path d="M541 0L583 58.9L570 -2.3Z" fill="#131e2b" stroke="#131e2b"></path><path d="M503 0L545 -2.3L477 -4.3Z" fill="#0d1521" stroke="#0d1521"></path><path d="M340 -33.1L362 0L365 0Z" fill="#111b27" stroke="#111b27"></path><path d="M365 0L362 0L392 57.7Z" fill="#141f2d" stroke="#141f2d"></path><path d="M340 -33.1L361 0L362 0Z" fill="#111b27" stroke="#111b27"></path><path d="M362 0L361 0L330 49.7Z" fill="#141f2d" stroke="#141f2d"></path><path d="M210 73.7L205 90.4L277 135.7Z" fill="#121c28" stroke="#121c28"></path><path d="M846 396.6L802 349.1L784 378.9Z" fill="#131e2b" stroke="#131e2b"></path><path d="M784 378.9L802 349.1L781 349.6Z" fill="#111b27" stroke="#111b27"></path><path d="M783 309L815 276.1L779 266.1Z" fill="#0f1723" stroke="#0f1723"></path><path d="M570 -2.3L583 58.9L579 0Z" fill="#101a26" stroke="#101a26"></path><path d="M541 0L545 -2.3L503 0Z" fill="#111b27" stroke="#111b27"></path><path d="M162 590.3L241 619.1L227 600Z" fill="#15202e" stroke="#15202e"></path><path d="M227 600L241 619.1L239 602.3Z" fill="#101a26" stroke="#101a26"></path><path d="M310 617.1L241 619.1L503 617.1Z" fill="#141f2d" stroke="#141f2d"></path><path d="M98 163.3L138 170.6L158 154.3Z" fill="#0f1925" stroke="#0f1925"></path><path d="M158 154.3L138 170.6L158 161.4Z" fill="#15202e" stroke="#15202e"></path><path d="M132 286.9L96 292.1L145 347.6Z" fill="#0f1723" stroke="#0f1723"></path><path d="M108 220.4L172 253.9L149 206.6Z" fill="#0d1521" stroke="#0d1521"></path><path d="M652 605.3L690 600L673 593.1Z" fill="#131d2a" stroke="#131d2a"></path><path d="M673 593.1L690 600L683 574.1Z" fill="#0d1521" stroke="#0d1521"></path><path d="M769 140.4L730 139.6L753 178.7Z" fill="#0d1521" stroke="#0d1521"></path><path d="M768 134.4L736 121.3L730 139.6Z" fill="#0d1521" stroke="#0d1521"></path><path d="M730 139.6L736 121.3L669 84.6Z" fill="#0f1723" stroke="#0f1723"></path><path d="M281 44.9L210 73.7L277 135.7Z" fill="#15202e" stroke="#15202e"></path><path d="M80 94.9L98 163.3L158 154.3Z" fill="#141f2d" stroke="#141f2d"></path><path d="M246 2.9L210 73.7L281 44.9Z" fill="#0f1723" stroke="#0f1723"></path><path d="M87 385.6L108 431.9L119 396.4Z" fill="#121c28" stroke="#121c28"></path><path d="M119 396.4L108 431.9L177 449.7Z" fill="#0d1521" stroke="#0d1521"></path><path d="M146 478.4L139 553.4L184 534.3Z" fill="#0e1622" stroke="#0e1622"></path><path d="M579 0L583 58.9L625 0Z" fill="#111b27" stroke="#111b27"></path><path d="M332 -53.1L446 0L477 -4.3Z" fill="#101a26" stroke="#101a26"></path><path d="M583 58.9L642 64.6L625 0Z" fill="#131d2a" stroke="#131d2a"></path><path d="M91 262.9L96 292.1L100 288Z" fill="#0d1521" stroke="#0d1521"></path><path d="M100 288L96 292.1L132 286.9Z" fill="#0f1723" stroke="#0f1723"></path><path d="M625 0L642 64.6L675 20.9Z" fill="#0f1723" stroke="#0f1723"></path><path d="M726 537.4L791 456.4L696 455.4Z" fill="#15202e" stroke="#15202e"></path><path d="M779 432.7L846 396.6L781 384.7Z" fill="#111b27" stroke="#111b27"></path><path d="M811 493.1L791 456.4L726 537.4Z" fill="#111b27" stroke="#111b27"></path><path d="M340 -33.1L321 0L361 0Z" fill="#131e2b" stroke="#131e2b"></path><path d="M361 0L321 0L330 49.7Z" fill="#0d1521" stroke="#0d1521"></path><path d="M736 576.3L726 537.4L683 574.1Z" fill="#0f1723" stroke="#0f1723"></path><path d="M106 215L108 220.4L149 206.6Z" fill="#15202e" stroke="#15202e"></path><path d="M652 605.3L703 600L690 600Z" fill="#15202e" stroke="#15202e"></path><path d="M690 600L703 600L683 574.1Z" fill="#15202e" stroke="#15202e"></path><path d="M138 170.6L106 215L149 206.6Z" fill="#101a26" stroke="#101a26"></path><path d="M108 220.4L91 262.9L132 286.9Z" fill="#15202e" stroke="#15202e"></path><path d="M96 292.1L85 352.1L145 347.6Z" fill="#141f2d" stroke="#141f2d"></path><path d="M66 316.7L85 352.1L96 292.1Z" fill="#111b27" stroke="#111b27"></path><path d="M853 293L783 309L802 349.1Z" fill="#141f2d" stroke="#141f2d"></path><path d="M853 293L815 276.1L783 309Z" fill="#111b27" stroke="#111b27"></path><path d="M842 191.3L769 140.4L753 178.7Z" fill="#111b27" stroke="#111b27"></path><path d="M85 352.1L87 385.6L119 396.4Z" fill="#121c28" stroke="#121c28"></path><path d="M106 215L91 262.9L108 220.4Z" fill="#141f2d" stroke="#141f2d"></path><path d="M703 600L736 576.3L683 574.1Z" fill="#101a26" stroke="#101a26"></path><path d="M744 549.1L811 493.1L726 537.4Z" fill="#0e1622" stroke="#0e1622"></path><path d="M772 129.7L842 191.3L792 99.9Z" fill="#15202e" stroke="#15202e"></path><path d="M736 121.3L755 99.9L676 77.9Z" fill="#101a26" stroke="#101a26"></path><path d="M772 129.7L768 134.4L769 140.4Z" fill="#0f1925" stroke="#0f1925"></path><path d="M769 140.4L768 134.4L730 139.6Z" fill="#141f2d" stroke="#141f2d"></path><path d="M675 20.9L642 64.6L676 77.9Z" fill="#101a26" stroke="#101a26"></path><path d="M579 0L625 0L570 -2.3Z" fill="#15202e" stroke="#15202e"></path><path d="M772 129.7L769 140.4L842 191.3Z" fill="#131d2a" stroke="#131d2a"></path><path d="M768 134.4L772 129.7L736 121.3Z" fill="#0f1723" stroke="#0f1723"></path><path d="M139 600L139 553.4L66 600Z" fill="#0f1723" stroke="#0f1723"></path><path d="M62 547.1L139 553.4L146 478.4Z" fill="#121c28" stroke="#121c28"></path><path d="M218 588.3L162 590.3L227 600Z" fill="#0e1622" stroke="#0e1622"></path><path d="M772 129.7L755 99.9L736 121.3Z" fill="#131d2a" stroke="#131d2a"></path><path d="M139 553.4L162 590.3L184 534.3Z" fill="#0f1723" stroke="#0f1723"></path><path d="M332 -53.1L410 0L446 0Z" fill="#0f1723" stroke="#0f1723"></path><path d="M321 0L246 2.9L281 44.9Z" fill="#0f1925" stroke="#0f1925"></path><path d="M332 -53.1L477 -4.3L545 -2.3Z" fill="#0d1521" stroke="#0d1521"></path><path d="M332 -53.1L545 -2.3L570 -2.3Z" fill="#0f1723" stroke="#0f1723"></path><path d="M726 0L675 20.9L676 77.9Z" fill="#111b27" stroke="#111b27"></path><path d="M25 289L66 316.7L91 262.9Z" fill="#0f1925" stroke="#0f1925"></path><path d="M91 262.9L66 316.7L96 292.1Z" fill="#121c28" stroke="#121c28"></path><path d="M85 352.1L36 379.6L87 385.6Z" fill="#0f1925" stroke="#0f1925"></path><path d="M332 -53.1L246 2.9L321 0Z" fill="#0d1521" stroke="#0d1521"></path><path d="M136 63.7L158 154.3L205 90.4Z" fill="#101a26" stroke="#101a26"></path><path d="M138 170.6L98 163.3L106 215Z" fill="#101a26" stroke="#101a26"></path><path d="M789 571.1L811 493.1L744 549.1Z" fill="#0f1723" stroke="#0f1723"></path><path d="M791 456.4L846 396.6L779 432.7Z" fill="#0d1521" stroke="#0d1521"></path><path d="M136 63.7L205 90.4L210 73.7Z" fill="#101a26" stroke="#101a26"></path><path d="M0 263.3L25 289L91 262.9Z" fill="#131d2a" stroke="#131d2a"></path><path d="M850 397L846 396.6L791 456.4Z" fill="#131d2a" stroke="#131d2a"></path><path d="M811 493.1L850 397L791 456.4Z" fill="#141f2d" stroke="#141f2d"></path><path d="M846 396.6L864 393.9L802 349.1Z" fill="#0f1925" stroke="#0f1925"></path><path d="M900 332.7L853 293L802 349.1Z" fill="#131e2b" stroke="#131e2b"></path><path d="M815 276.1L842 191.3L778 227.3Z" fill="#0d1521" stroke="#0d1521"></path><path d="M703 600L760 600L736 576.3Z" fill="#131d2a" stroke="#131d2a"></path><path d="M736 576.3L789 571.1L744 549.1Z" fill="#111b27" stroke="#111b27"></path><path d="M783 607.3L760 600L703 600Z" fill="#111b27" stroke="#111b27"></path><path d="M762 600L760 600L783 607.3Z" fill="#121c28" stroke="#121c28"></path><path d="M125 0L200 17.9L128 -8.1Z" fill="#131d2a" stroke="#131d2a"></path><path d="M246 2.9L200 17.9L210 73.7Z" fill="#0d1521" stroke="#0d1521"></path><path d="M783 607.3L703 600L652 605.3Z" fill="#0e1622" stroke="#0e1622"></path><path d="M760 600L762 600L736 576.3Z" fill="#131e2b" stroke="#131e2b"></path><path d="M707 -18.1L332 -53.1L570 -2.3Z" fill="#0f1723" stroke="#0f1723"></path><path d="M340 -33.1L332 -53.1L321 0Z" fill="#141f2d" stroke="#141f2d"></path><path d="M139 553.4L139 600L162 590.3Z" fill="#0d1521" stroke="#0d1521"></path><path d="M162 590.3L139 600L241 619.1Z" fill="#0d1521" stroke="#0d1521"></path><path d="M62 547.1L143 469.1L108 431.9Z" fill="#131e2b" stroke="#131e2b"></path><path d="M22 465.3L108 431.9L87 385.6Z" fill="#141f2d" stroke="#141f2d"></path><path d="M762 600L789 571.1L736 576.3Z" fill="#0e1622" stroke="#0e1622"></path><path d="M900 455.3L864 393.9L850 397Z" fill="#101a26" stroke="#101a26"></path><path d="M772 129.7L792 99.9L755 99.9Z" fill="#111b27" stroke="#111b27"></path><path d="M755 99.9L726 0L676 77.9Z" fill="#0f1723" stroke="#0f1723"></path><path d="M842 191.3L753 178.7L778 227.3Z" fill="#141f2d" stroke="#141f2d"></path><path d="M900 248.4L842 191.3L815 276.1Z" fill="#0f1723" stroke="#0f1723"></path><path d="M872 392.6L864 393.9L900 455.3Z" fill="#0d1521" stroke="#0d1521"></path><path d="M850 397L864 393.9L846 396.6Z" fill="#0f1925" stroke="#0f1925"></path><path d="M853 293L900 248.4L815 276.1Z" fill="#0f1925" stroke="#0f1925"></path><path d="M200 17.9L136 63.7L210 73.7Z" fill="#0d1521" stroke="#0d1521"></path><path d="M790 68.6L783 81.4L792 99.9Z" fill="#131d2a" stroke="#131d2a"></path><path d="M792 99.9L783 81.4L755 99.9Z" fill="#0e1622" stroke="#0e1622"></path><path d="M0 315.7L36 379.6L66 316.7Z" fill="#0f1925" stroke="#0f1925"></path><path d="M66 316.7L36 379.6L85 352.1Z" fill="#15202e" stroke="#15202e"></path><path d="M900 455.3L850 397L811 493.1Z" fill="#131d2a" stroke="#131d2a"></path><path d="M864 393.9L900 332.7L802 349.1Z" fill="#141f2d" stroke="#141f2d"></path><path d="M819 600L833 528.1L789 571.1Z" fill="#101a26" stroke="#101a26"></path><path d="M789 571.1L833 528.1L811 493.1Z" fill="#131e2b" stroke="#131e2b"></path><path d="M900 625.1L783 607.3L652 605.3Z" fill="#0f1723" stroke="#0f1723"></path><path d="M762 600L783 607.3L789 571.1Z" fill="#111b27" stroke="#111b27"></path><path d="M43 189.3L106 215L98 163.3Z" fill="#0d1521" stroke="#0d1521"></path><path d="M43 189.3L91 262.9L106 215Z" fill="#101a26" stroke="#101a26"></path><path d="M832 81.6L790 68.6L792 99.9Z" fill="#111b27" stroke="#111b27"></path><path d="M783 81.4L780 29.6L755 99.9Z" fill="#111b27" stroke="#111b27"></path><path d="M675 20.9L707 -18.1L625 0Z" fill="#15202e" stroke="#15202e"></path><path d="M741 0L726 0L780 29.6Z" fill="#121c28" stroke="#121c28"></path><path d="M625 0L707 -18.1L570 -2.3Z" fill="#121c28" stroke="#121c28"></path><path d="M12 125.4L43 189.3L98 163.3Z" fill="#141f2d" stroke="#141f2d"></path><path d="M726 0L707 -18.1L675 20.9Z" fill="#131d2a" stroke="#131d2a"></path><path d="M900 600L861 506.4L833 528.1Z" fill="#131e2b" stroke="#131e2b"></path><path d="M833 528.1L861 506.4L811 493.1Z" fill="#101a26" stroke="#101a26"></path><path d="M136 63.7L80 94.9L158 154.3Z" fill="#101a26" stroke="#101a26"></path><path d="M80 64.6L80 94.9L136 63.7Z" fill="#111b27" stroke="#111b27"></path><path d="M780 29.6L726 0L755 99.9Z" fill="#131e2b" stroke="#131e2b"></path><path d="M726 0L741 0L707 -18.1Z" fill="#0f1723" stroke="#0f1723"></path><path d="M22 465.3L62 547.1L108 431.9Z" fill="#0f1925" stroke="#0f1925"></path><path d="M783 607.3L812 600L789 571.1Z" fill="#141f2d" stroke="#141f2d"></path><path d="M900 379.6L900 332.7L872 392.6Z" fill="#131e2b" stroke="#131e2b"></path><path d="M872 392.6L900 332.7L864 393.9Z" fill="#131d2a" stroke="#131d2a"></path><path d="M36 379.6L22 465.3L87 385.6Z" fill="#121c28" stroke="#121c28"></path><path d="M0 441.9L22 465.3L36 379.6Z" fill="#131d2a" stroke="#131d2a"></path><path d="M790 68.6L780 29.6L783 81.4Z" fill="#0f1925" stroke="#0f1925"></path><path d="M857 32.7L780 29.6L790 68.6Z" fill="#121c28" stroke="#121c28"></path><path d="M832 81.6L792 99.9L842 191.3Z" fill="#111b27" stroke="#111b27"></path><path d="M900 332.7L900 300.3L853 293Z" fill="#15202e" stroke="#15202e"></path><path d="M900 300.3L900 293L853 293Z" fill="#131d2a" stroke="#131d2a"></path><path d="M900 455.3L900 379.6L872 392.6Z" fill="#0f1723" stroke="#0f1723"></path><path d="M900 293L900 291.1L853 293Z" fill="#131d2a" stroke="#131d2a"></path><path d="M812 600L819 600L789 571.1Z" fill="#131d2a" stroke="#131d2a"></path><path d="M783 607.3L819 600L812 600Z" fill="#111b27" stroke="#111b27"></path><path d="M0 299L0 315.7L25 289Z" fill="#111b27" stroke="#111b27"></path><path d="M25 289L0 315.7L66 316.7Z" fill="#121c28" stroke="#121c28"></path><path d="M0 272.1L0 299L25 289Z" fill="#0f1723" stroke="#0f1723"></path><path d="M0 272.1L25 289L0 263.3Z" fill="#141f2d" stroke="#141f2d"></path><path d="M900 291.1L900 259.9L853 293Z" fill="#141f2d" stroke="#141f2d"></path><path d="M0 315.7L0 392.4L36 379.6Z" fill="#101a26" stroke="#101a26"></path><path d="M0 263.3L91 262.9L43 189.3Z" fill="#0d1521" stroke="#0d1521"></path><path d="M900 259.9L900 248.4L853 293Z" fill="#111b27" stroke="#111b27"></path><path d="M896 123.7L832 81.6L842 191.3Z" fill="#0f1925" stroke="#0f1925"></path><path d="M0 160.4L0 263.3L43 189.3Z" fill="#131d2a" stroke="#131d2a"></path><path d="M94 0L80 64.6L136 63.7Z" fill="#0d1521" stroke="#0d1521"></path><path d="M12 125.4L0 160.4L43 189.3Z" fill="#131d2a" stroke="#131d2a"></path><path d="M125 0L136 63.7L200 17.9Z" fill="#131d2a" stroke="#131d2a"></path><path d="M900 259.9L916 276.9L900 248.4Z" fill="#121c28" stroke="#121c28"></path><path d="M900 291.1L916 276.9L900 259.9Z" fill="#121c28" stroke="#121c28"></path><path d="M900 293L912 297L900 291.1Z" fill="#131e2b" stroke="#131e2b"></path><path d="M900 300.3L912 297L900 293Z" fill="#101a26" stroke="#101a26"></path><path d="M900 332.7L912 297L900 300.3Z" fill="#131e2b" stroke="#131e2b"></path><path d="M900 379.6L912 297L900 332.7Z" fill="#101a26" stroke="#101a26"></path><path d="M861 506.4L900 455.3L811 493.1Z" fill="#141f2d" stroke="#141f2d"></path><path d="M900 379.6L951 480.4L912 297Z" fill="#0f1925" stroke="#0f1925"></path><path d="M900 458.4L900 455.3L861 506.4Z" fill="#0e1622" stroke="#0e1622"></path><path d="M0 392.4L0 441.9L36 379.6Z" fill="#0f1925" stroke="#0f1925"></path><path d="M0 531.3L48 571.1L62 547.1Z" fill="#0f1925" stroke="#0f1925"></path><path d="M913 466.7L900 458.4L861 506.4Z" fill="#0e1622" stroke="#0e1622"></path><path d="M951 480.4L916 276.9L912 297Z" fill="#0e1622" stroke="#0e1622"></path><path d="M900 248.4L900 206.6L842 191.3Z" fill="#121c28" stroke="#121c28"></path><path d="M915 185.4L900 206.6L900 248.4Z" fill="#141f2d" stroke="#141f2d"></path><path d="M0 496.6L62 547.1L22 465.3Z" fill="#0f1925" stroke="#0f1925"></path><path d="M62 547.1L66 600L139 553.4Z" fill="#121c28" stroke="#121c28"></path><path d="M48 571.1L66 600L62 547.1Z" fill="#0f1925" stroke="#0f1925"></path><path d="M139 600L66 600L241 619.1Z" fill="#141f2d" stroke="#141f2d"></path><path d="M913 466.7L900 379.6L900 455.3Z" fill="#0e1622" stroke="#0e1622"></path><path d="M912 297L916 276.9L900 291.1Z" fill="#111b27" stroke="#111b27"></path><path d="M128 -8.1L200 17.9L148 -47.1Z" fill="#101a26" stroke="#101a26"></path><path d="M900 625.1L841 599.3L819 600Z" fill="#15202e" stroke="#15202e"></path><path d="M819 600L841 599.3L833 528.1Z" fill="#131d2a" stroke="#131d2a"></path><path d="M148 -47.1L200 17.9L246 2.9Z" fill="#15202e" stroke="#15202e"></path><path d="M125 0L94 0L136 63.7Z" fill="#141f2d" stroke="#141f2d"></path><path d="M951 480.4L913 466.7L939 531.3Z" fill="#121c28" stroke="#121c28"></path><path d="M900 458.4L913 466.7L900 455.3Z" fill="#0f1925" stroke="#0f1925"></path><path d="M0 441.9L0 496.6L22 465.3Z" fill="#0d1521" stroke="#0d1521"></path><path d="M48 571.1L40 600L66 600Z" fill="#131d2a" stroke="#131d2a"></path><path d="M12 125.4L80 94.9L10 36.7Z" fill="#141f2d" stroke="#141f2d"></path><path d="M12 125.4L98 163.3L80 94.9Z" fill="#131d2a" stroke="#131d2a"></path><path d="M916 276.9L915 185.4L900 248.4Z" fill="#131e2b" stroke="#131e2b"></path><path d="M900 206.6L915 185.4L842 191.3Z" fill="#131d2a" stroke="#131d2a"></path><path d="M10 36.7L80 94.9L80 64.6Z" fill="#101a26" stroke="#101a26"></path><path d="M332 -53.1L148 -47.1L246 2.9Z" fill="#111b27" stroke="#111b27"></path><path d="M128 -8.1L94 0L125 0Z" fill="#131d2a" stroke="#131d2a"></path><path d="M0 600L40 600L48 571.1Z" fill="#0f1723" stroke="#0f1723"></path><path d="M66 600L40 600L241 619.1Z" fill="#0e1622" stroke="#0e1622"></path><path d="M148 -47.1L94 0L128 -8.1Z" fill="#0e1622" stroke="#0e1622"></path><path d="M0 496.6L0 528.1L62 547.1Z" fill="#0d1521" stroke="#0d1521"></path><path d="M0 528.1L0 531.3L62 547.1Z" fill="#131e2b" stroke="#131e2b"></path><path d="M915 185.4L896 123.7L842 191.3Z" fill="#131d2a" stroke="#131d2a"></path><path d="M832 81.6L857 32.7L790 68.6Z" fill="#0f1925" stroke="#0f1925"></path><path d="M0 131.9L4 131.7L12 125.4Z" fill="#15202e" stroke="#15202e"></path><path d="M12 125.4L4 131.7L0 160.4Z" fill="#121c28" stroke="#121c28"></path><path d="M148 -47.1L91 0L94 0Z" fill="#0e1622" stroke="#0e1622"></path><path d="M94 0L91 0L80 64.6Z" fill="#101a26" stroke="#101a26"></path><path d="M-15 133.6L0 131.9L12 125.4Z" fill="#0e1622" stroke="#0e1622"></path><path d="M4 131.7L0 131.9L0 160.4Z" fill="#15202e" stroke="#15202e"></path><path d="M148 -47.1L81 0L91 0Z" fill="#131e2b" stroke="#131e2b"></path><path d="M91 0L81 0L80 64.6Z" fill="#0d1521" stroke="#0d1521"></path><path d="M900 99.7L857 32.7L832 81.6Z" fill="#111b27" stroke="#111b27"></path><path d="M780 29.6L834 -26.1L741 0Z" fill="#131e2b" stroke="#131e2b"></path><path d="M741 0L834 -26.1L707 -18.1Z" fill="#0d1521" stroke="#0d1521"></path><path d="M915 185.4L900 99.7L896 123.7Z" fill="#131d2a" stroke="#131d2a"></path><path d="M896 123.7L900 99.7L832 81.6Z" fill="#131d2a" stroke="#131d2a"></path><path d="M0 40.7L-15 133.6L12 125.4Z" fill="#131d2a" stroke="#131d2a"></path><path d="M0 131.9L-15 133.6L0 160.4Z" fill="#101a26" stroke="#101a26"></path><path d="M0 160.4L-15 133.6L0 263.3Z" fill="#0f1925" stroke="#0f1925"></path><path d="M0 263.3L-15 133.6L0 272.1Z" fill="#131d2a" stroke="#131d2a"></path><path d="M0 272.1L-38 511.4L0 299Z" fill="#0d1521" stroke="#0d1521"></path><path d="M0 299L-38 511.4L0 315.7Z" fill="#0d1521" stroke="#0d1521"></path><path d="M0 315.7L-38 511.4L0 392.4Z" fill="#0d1521" stroke="#0d1521"></path><path d="M0 392.4L-38 511.4L0 441.9Z" fill="#101a26" stroke="#101a26"></path><path d="M0 441.9L-38 511.4L0 496.6Z" fill="#131e2b" stroke="#131e2b"></path><path d="M0 496.6L-38 511.4L0 528.1Z" fill="#131e2b" stroke="#131e2b"></path><path d="M0 528.1L-38 511.4L0 531.3Z" fill="#101a26" stroke="#101a26"></path><path d="M939 531.3L913 466.7L861 506.4Z" fill="#0d1521" stroke="#0d1521"></path><path d="M913 466.7L951 480.4L900 379.6Z" fill="#131d2a" stroke="#131d2a"></path><path d="M916 276.9L951 480.4L915 185.4Z" fill="#0e1622" stroke="#0e1622"></path><path d="M900 625.1L900 600L841 599.3Z" fill="#0e1622" stroke="#0e1622"></path><path d="M841 599.3L900 600L833 528.1Z" fill="#141f2d" stroke="#141f2d"></path><path d="M-15 133.6L-38 511.4L0 272.1Z" fill="#131e2b" stroke="#131e2b"></path><path d="M0 531.3L0 600L48 571.1Z" fill="#0f1925" stroke="#0f1925"></path><path d="M-38 511.4L0 600L0 531.3Z" fill="#15202e" stroke="#15202e"></path><path d="M40 600L0 600L241 619.1Z" fill="#121c28" stroke="#121c28"></path><path d="M900 600L939 531.3L861 506.4Z" fill="#121c28" stroke="#121c28"></path><path d="M877 0L834 -26.1L857 32.7Z" fill="#15202e" stroke="#15202e"></path><path d="M857 32.7L834 -26.1L780 29.6Z" fill="#0f1723" stroke="#0f1723"></path><path d="M707 -18.1L834 -26.1L332 -53.1Z" fill="#0e1622" stroke="#0e1622"></path><path d="M783 607.3L900 625.1L819 600Z" fill="#101a26" stroke="#101a26"></path><path d="M900 600L900 625.1L939 531.3Z" fill="#131d2a" stroke="#131d2a"></path><path d="M503 617.1L900 625.1L652 605.3Z" fill="#101a26" stroke="#101a26"></path><path d="M241 619.1L900 625.1L503 617.1Z" fill="#0f1925" stroke="#0f1925"></path><path d="M81 0L10 36.7L80 64.6Z" fill="#111b27" stroke="#111b27"></path><path d="M0 40.7L10 36.7L0 33.6Z" fill="#111b27" stroke="#111b27"></path><path d="M915 185.4L902 40.6L900 99.7Z" fill="#0d1521" stroke="#0d1521"></path><path d="M900 99.7L902 40.6L857 32.7Z" fill="#15202e" stroke="#15202e"></path><path d="M900 0L902 40.6L900 -6.1Z" fill="#0d1521" stroke="#0d1521"></path><path d="M0 33.6L10 36.7L0 0Z" fill="#0f1723" stroke="#0f1723"></path><path d="M10 36.7L0 40.7L12 125.4Z" fill="#0f1925" stroke="#0f1925"></path><path d="M902 40.6L877 0L857 32.7Z" fill="#0f1723" stroke="#0f1723"></path><path d="M0 0L10 36.7L81 0Z" fill="#131e2b" stroke="#131e2b"></path><path d="M0 40.7L-35 11.9L-15 133.6Z" fill="#0f1925" stroke="#0f1925"></path><path d="M877 0L876 -20.1L834 -26.1Z" fill="#121c28" stroke="#121c28"></path><path d="M900 -6.1L876 -20.1L877 0Z" fill="#101a26" stroke="#101a26"></path><path d="M902 40.6L897 0L877 0Z" fill="#0f1925" stroke="#0f1925"></path><path d="M900 -6.1L902 40.6L915 185.4Z" fill="#101a26" stroke="#101a26"></path><path d="M902 40.6L900 0L897 0Z" fill="#111b27" stroke="#111b27"></path><path d="M897 0L900 -6.1L877 0Z" fill="#0d1521" stroke="#0d1521"></path><path d="M148 -47.1L0 0L81 0Z" fill="#15202e" stroke="#15202e"></path><path d="M0 33.6L-35 11.9L0 40.7Z" fill="#141f2d" stroke="#141f2d"></path><path d="M951 480.4L900 -6.1L915 185.4Z" fill="#131e2b" stroke="#131e2b"></path><path d="M900 0L900 -6.1L897 0Z" fill="#111b27" stroke="#111b27"></path><path d="M0 0L-35 11.9L0 33.6Z" fill="#15202e" stroke="#15202e"></path><path d="M-15 133.6L-35 11.9L-38 511.4Z" fill="#0f1723" stroke="#0f1723"></path></g></svg>